<svg version="1.1" id="Layer_1" xmlns="http://www.w3.org/2000/svg" xmlns:xlink="http://www.w3.org/1999/xlink" x="0px" y="0px"
	 width="308.7612359841165" height="304.915625" viewBox="0 0 1000 1125" enable-background="new 0 0 1000 1125" xml:space="preserve">
<path fill="#FFFFFF" opacity="1.000000" stroke="none" 
	d="
M1.000000,601.000000 
	C1.000000,598.299988 1.000000,595.599976 1.369081,592.448303 
	C6.375455,586.949890 11.116925,581.994019 15.622174,576.832031 
	C20.612734,571.114014 23.538748,564.763855 20.987570,556.900940 
	C16.357302,542.630066 17.352480,528.138550 20.133356,513.771851 
	C21.336031,507.558502 22.399643,500.218933 26.287001,495.843597 
	C35.630280,485.327423 39.496540,472.823242 42.905281,459.927368 
	C44.132359,455.285095 43.232143,449.902954 45.091114,445.638000 
	C51.019165,432.037628 54.652756,417.584503 62.738266,404.713593 
	C70.855888,391.791565 76.485077,377.331360 83.792000,363.863831 
	C87.122185,357.725891 90.142990,351.709900 91.120377,344.739014 
	C91.377258,342.906860 92.019417,340.844727 93.177704,339.473724 
	C97.429787,334.440704 97.268845,328.971893 95.623848,323.113525 
	C93.978821,317.254974 92.175674,311.405640 91.086105,305.434723 
	C89.557686,297.058899 92.341698,289.345947 96.456284,282.248199 
	C98.642715,278.476593 101.375885,274.741669 104.677116,271.955719 
	C111.242897,266.414795 119.553215,264.522736 127.796684,263.062500 
	C135.859695,261.634277 143.805161,260.344513 149.272369,253.266373 
	C152.282822,249.368851 155.438019,245.574905 158.673737,241.861267 
	C166.111328,233.325012 173.357544,224.596191 181.204636,216.449493 
	C189.708252,207.621170 198.865189,199.425568 207.626633,190.841187 
	C215.745087,182.886810 223.584320,174.643372 231.817215,166.811813 
	C235.309845,163.489441 239.533112,160.944107 243.352646,157.954071 
	C247.692459,154.556747 253.846710,153.226288 255.647766,146.908829 
	C256.568542,143.679047 257.384827,140.258530 259.108490,137.452606 
	C262.533936,131.876251 259.020935,121.881935 269.660309,121.154022 
	C265.316895,115.114716 271.732330,111.804466 272.431213,107.182190 
	C268.262909,105.167015 266.675751,102.048851 268.409302,99.081345 
	C270.105103,96.178444 276.213562,94.680908 277.638916,97.501732 
	C280.983093,104.119942 285.496155,102.746620 290.584229,101.020615 
	C291.032562,100.868530 291.579529,101.032364 292.076630,100.995216 
	C301.494690,100.291382 310.522461,102.121880 319.537048,104.691368 
	C322.583771,105.559792 326.495544,105.880539 329.290100,104.717278 
	C341.606232,99.590538 354.142639,95.348534 367.146362,92.333244 
	C376.672394,90.124367 386.077423,87.388329 395.519867,84.826263 
	C401.227600,83.277550 406.838837,81.306892 412.611267,80.080338 
	C419.148895,78.691208 425.474487,77.341217 430.436279,72.250420 
	C432.005005,70.640900 435.624725,68.594765 436.609833,69.259979 
	C441.760376,72.737984 446.857788,69.670387 451.885010,69.883789 
	C461.368286,70.286324 470.880829,70.000626 480.381195,69.999199 
	C481.547485,69.999023 482.942596,70.407455 483.844147,69.915878 
	C491.535034,65.722328 499.880066,66.910965 507.991638,67.103287 
	C517.323425,67.324532 526.685852,67.941414 535.943970,69.108032 
	C545.203186,70.274780 554.293152,72.870155 563.561951,73.850754 
	C573.074036,74.857101 582.712830,74.665817 592.296021,75.002518 
	C592.957458,75.025749 593.715820,74.881317 594.263977,75.150803 
	C605.051514,80.453880 617.533752,77.623520 628.567383,82.761833 
	C636.876038,86.631142 646.786072,85.267586 655.411865,89.776825 
	C663.367859,93.935905 673.025085,93.146820 681.356934,97.692177 
	C687.497803,101.042305 695.123169,101.657600 702.074158,103.539375 
	C714.706909,106.959328 724.061951,116.332352 735.472412,121.983200 
	C742.767334,125.595886 750.192200,129.008789 757.201111,133.121002 
	C766.749878,138.723450 776.402649,144.319199 785.205322,150.982056 
	C797.838806,160.544571 811.378296,169.222672 820.914612,182.370346 
	C821.383179,183.016296 822.133667,183.466873 822.780701,183.972855 
	C833.010559,191.973312 843.245850,199.966873 853.477600,207.964951 
	C855.007751,209.161026 856.467041,210.457520 858.060974,211.560287 
	C862.142883,214.384430 866.554016,216.803375 870.327087,219.984802 
	C874.642639,223.623550 878.253601,228.086105 882.457642,231.872009 
	C887.841370,236.720245 890.298096,243.116638 893.299988,249.450226 
	C899.671204,262.892639 906.720947,276.020233 913.713196,289.159454 
	C920.339844,301.611481 927.765259,313.664703 933.872986,326.358368 
	C938.981934,336.976257 942.881348,348.196930 946.975830,359.276581 
	C951.519348,371.571198 955.571289,384.046692 960.036194,396.371429 
	C963.491394,405.909363 963.922302,416.676178 971.698120,424.532928 
	C972.919373,425.766876 972.803711,428.505341 972.966370,430.574921 
	C973.776306,440.878937 973.613403,451.348328 975.454102,461.457062 
	C977.241211,471.272400 979.300110,480.936279 979.051086,490.969910 
	C979.004272,492.859436 979.679626,494.757996 979.921265,496.665100 
	C980.772827,503.385925 985.781311,507.647125 989.234253,512.874878 
	C992.723877,518.158142 999.604370,521.315308 999.546509,528.893860 
	C999.546326,528.925537 1000.494690,528.964478 1001.000000,529.000000 
	C1001.000000,530.066711 1001.000000,531.133362 1000.659058,532.303589 
	C999.545837,534.921814 998.326477,537.412415 998.188354,539.961548 
	C998.118347,541.253113 1000.000427,542.650452 1001.000000,544.000000 
	C1001.000000,547.030579 1001.000000,550.061218 1000.619141,553.546021 
	C997.910889,556.078430 995.472412,558.047180 993.288208,560.266296 
	C991.204712,562.383179 988.290710,564.487061 987.644104,567.072510 
	C985.030090,577.524353 983.043640,588.139587 981.040649,598.735168 
	C979.867188,604.942566 979.372437,611.283569 978.083008,617.462341 
	C976.309814,625.959229 973.958496,634.334839 972.141907,642.823853 
	C971.819153,644.331726 972.360046,646.695984 973.417603,647.708252 
	C977.418701,651.537903 981.922180,654.840027 985.961914,658.633179 
	C987.281616,659.872375 988.758118,663.300293 988.466980,663.524536 
	C986.264099,665.220764 983.946960,667.382935 980.645813,665.270386 
	C978.950012,664.185120 976.847534,663.743958 974.946289,662.968750 
	C972.606140,662.014648 970.284180,661.015747 967.954407,660.036133 
	C967.024170,662.503662 965.994751,664.938904 965.180847,667.444275 
	C961.722778,678.089050 958.879700,688.972351 954.775940,699.359131 
	C949.245483,713.357178 943.039917,727.109863 936.612122,740.726135 
	C929.707825,755.351807 922.189697,769.687073 914.979309,784.168884 
	C909.758362,794.655151 904.199890,804.770142 895.560059,813.102417 
	C884.190308,824.067200 873.467712,835.702881 862.459045,847.042542 
	C859.527405,850.062195 856.440918,852.941833 853.645813,856.081787 
	C846.757141,863.820801 837.337646,868.976257 831.808533,878.201721 
	C829.926697,881.341614 828.558594,883.559570 829.754028,887.431152 
	C830.444031,889.666016 829.366882,893.034546 827.931152,895.084656 
	C827.234070,896.079956 823.196533,896.092957 821.861267,895.040649 
	C817.036865,891.238647 813.267456,892.221191 809.249268,896.143555 
	C807.310425,898.036194 804.925964,899.566467 802.534607,900.881348 
	C797.917236,903.420227 792.883484,905.282898 788.510498,908.166199 
	C781.901672,912.523804 775.816284,917.666565 769.314941,922.197998 
	C761.519836,927.631287 753.464722,932.691589 745.667542,938.122192 
	C744.394104,939.009216 743.328003,940.893188 743.098877,942.453430 
	C742.309082,947.830872 739.222351,950.478882 733.921631,948.870789 
	C726.824585,946.717773 720.400574,948.561707 714.201904,951.443237 
	C707.264404,954.668091 700.818542,959.017578 693.757874,961.893921 
	C684.893921,965.504944 674.828552,966.765808 666.739807,971.521179 
	C657.750183,976.806091 647.885010,981.464966 641.103271,990.176453 
	C639.621155,992.080261 636.590576,992.811340 634.225037,993.985413 
	C631.975098,995.102234 629.354736,995.701538 627.435547,997.212280 
	C622.043030,1001.457153 624.352112,1006.873474 626.103394,1011.807007 
	C627.664734,1016.205688 627.483948,1020.057983 623.571594,1022.686035 
	C620.390747,1024.822754 615.927795,1022.692017 613.040833,1017.911133 
	C610.487366,1013.682739 608.613281,1009.028992 605.911255,1004.909363 
	C602.636292,999.916138 595.291016,995.218262 588.876160,999.830566 
	C583.256104,1003.871399 577.476318,1005.728149 570.616882,1005.074768 
	C566.921631,1004.722900 564.014221,1008.905396 566.362366,1011.341492 
	C570.471375,1015.604248 568.682434,1020.365417 568.914856,1024.922852 
	C569.146545,1029.468628 565.992371,1033.476929 562.520142,1033.992432 
	C558.991516,1034.516235 549.864685,1029.964478 549.001038,1027.250122 
	C545.695740,1016.861694 544.532654,1016.293701 534.424744,1020.242310 
	C533.531921,1020.591003 532.774048,1021.290222 531.878052,1021.624451 
	C527.759094,1023.161011 521.899902,1021.695740 521.188904,1018.261719 
	C519.742249,1011.274780 514.092651,1010.534058 508.959839,1009.051086 
	C500.190155,1006.517334 491.384277,1004.059509 482.489380,1002.025391 
	C476.381927,1000.628784 470.121033,999.472046 463.885864,999.204041 
	C459.091949,998.997864 454.177948,1000.089966 449.418945,1001.088806 
	C446.203766,1001.763611 442.964478,1002.921875 440.106384,1004.524536 
	C437.482635,1005.995728 435.354889,1008.351562 432.426941,1010.805054 
	C430.414642,1007.341064 428.696655,1004.383667 426.761322,1001.052124 
	C419.492432,1001.867920 413.173920,999.155457 410.087982,991.616699 
	C408.129303,986.831787 405.364166,984.932068 400.213531,984.837158 
	C396.147858,984.762268 392.058105,983.419800 388.078125,982.291016 
	C385.890350,981.670471 383.907227,980.328186 380.707886,978.760681 
	C383.313629,983.808044 385.188202,987.360657 386.989105,990.950195 
	C388.703278,994.366821 388.969513,996.997559 383.847870,997.067261 
	C377.577332,997.152466 376.323242,1000.890381 376.851440,1006.421204 
	C377.041260,1008.408936 375.904968,1010.823792 374.685730,1012.560669 
	C373.473969,1014.287109 371.397522,1015.406677 368.458801,1017.805969 
	C374.805542,1020.929993 379.735565,1024.060059 385.112885,1025.835327 
	C392.787537,1028.369019 396.011169,1037.625366 390.174255,1043.159424 
	C384.382904,1048.650024 378.329163,1054.014160 371.708771,1058.406128 
	C369.061584,1060.162109 364.295166,1060.149048 361.029694,1059.163818 
	C357.458344,1058.086304 355.830780,1054.308350 355.974976,1050.189087 
	C356.225403,1043.037476 355.049744,1035.730591 358.893555,1029.031982 
	C359.440460,1028.078979 358.969269,1026.541748 358.969269,1025.000000 
	C357.588257,1025.000000 356.609406,1024.978149 355.631744,1025.003296 
	C340.328339,1025.397217 341.540558,1020.594543 344.687561,1010.802490 
	C345.977386,1006.789062 343.440247,1005.726135 340.669006,1005.078674 
	C336.916992,1004.202026 333.056488,1003.789795 329.242523,1003.178345 
	C329.220703,1002.758789 329.198883,1002.339172 329.177094,1001.919617 
	C331.846558,1000.726135 334.516022,999.532654 337.072845,998.389587 
	C335.737762,992.073730 333.300232,987.048645 328.660187,982.914795 
	C326.730042,981.195129 326.073029,977.969604 325.038849,975.349243 
	C324.397522,973.724243 324.376099,971.841064 323.662842,970.260315 
	C319.792816,961.684082 312.966309,957.955994 303.691956,956.777710 
	C297.493835,955.990234 291.251617,953.728210 285.595001,950.966797 
	C278.722687,947.611877 272.078949,943.518555 265.996033,938.879578 
	C256.654816,931.755737 247.762680,924.024231 238.904922,916.292847 
	C234.243057,912.223755 230.104431,907.560364 225.647446,903.250183 
	C218.955948,896.779053 212.129578,890.446594 205.474350,883.938904 
	C195.748260,874.428284 191.355347,870.285034 178.528671,877.798645 
	C175.427017,879.615540 171.988419,880.857178 168.238678,882.577087 
	C169.403732,877.192810 167.307251,874.120056 162.694885,874.045532 
	C146.979736,873.791626 131.331329,874.422241 115.568748,878.531311 
	C116.755905,881.654114 117.831139,884.482544 118.789078,887.002380 
	C112.348724,889.064453 105.896919,891.126099 99.451385,893.207153 
	C99.149620,893.304565 98.726822,893.791687 98.657249,893.734741 
	C93.908310,889.847229 89.738251,894.170837 85.334076,895.015747 
	C85.027878,894.546387 84.721687,894.077087 84.415497,893.607727 
	C88.666725,889.964600 92.917953,886.321533 97.430733,882.454285 
	C96.033699,878.939453 94.895248,878.774719 91.191353,882.259949 
	C89.659019,883.701660 88.072495,885.221069 86.235504,886.175659 
	C82.428833,888.153748 79.312950,886.081543 80.141693,881.945984 
	C80.582466,879.746399 82.240768,877.649170 83.743050,875.830933 
	C87.967133,870.718933 88.125084,869.364624 83.336189,864.915222 
	C80.124481,861.931213 76.074059,859.762634 73.206139,856.516052 
	C68.715553,851.432617 65.412918,845.248474 60.680523,840.443115 
	C54.980202,834.655029 48.336411,829.790039 42.022652,824.621094 
	C41.368996,824.085876 39.888367,823.720947 39.290894,824.088623 
	C34.130299,827.263977 28.847267,830.324158 24.102114,834.056152 
	C21.648335,835.986023 16.071493,838.344238 13.499641,836.714355 
	C12.700161,836.207764 11.923254,834.053772 12.306243,833.558105 
	C14.571444,830.626282 15.785854,826.140137 21.004274,826.930847 
	C21.793444,827.050415 22.951548,826.479248 23.545422,825.853821 
	C26.828268,822.397156 29.890366,818.727478 33.231327,815.330627 
	C35.044220,813.487427 35.195591,812.391418 33.691204,809.941589 
	C30.642509,804.976685 25.902430,800.545959 26.846670,793.787537 
	C26.922485,793.244995 25.960711,792.557495 25.357485,791.777527 
	C23.723232,792.838501 22.335810,794.385681 20.760746,794.608887 
	C18.450003,794.936340 15.925293,794.583801 13.673771,793.911438 
	C13.115700,793.744751 12.788633,791.080017 13.194815,789.838135 
	C13.722809,788.223877 14.762777,786.252625 16.151154,785.534119 
	C22.472420,782.262695 22.552044,777.238159 21.180056,771.270142 
	C20.709360,769.222595 20.824360,766.217590 22.019979,764.743469 
	C29.741777,755.223083 37.861141,746.026062 45.796135,736.677185 
	C48.604397,733.368530 51.261261,729.931458 53.278980,727.430786 
	C57.084202,725.812134 61.109474,725.268372 63.150894,722.965759 
	C66.459618,719.233826 69.454102,714.624390 70.782387,709.881592 
	C72.588089,703.434082 70.337540,696.951843 66.131409,691.795166 
	C61.996681,686.726074 61.930470,684.842468 67.308441,680.919250 
	C68.432640,680.099121 69.160286,678.724243 70.039307,677.580933 
	C75.110504,670.985229 74.354866,663.560791 72.960258,656.109680 
	C69.343834,636.787781 65.748589,617.460693 61.906067,598.183228 
	C61.046894,593.872864 58.798531,590.134521 54.445595,588.065552 
	C48.511791,585.245178 42.622124,582.323608 36.802429,579.275696 
	C34.379425,578.006653 32.586128,578.396790 31.127319,580.536560 
	C29.042328,583.594910 26.998825,586.684143 25.031267,589.819031 
	C23.241842,592.670044 21.640224,595.639099 19.844545,598.485962 
	C16.328825,604.059814 10.530671,604.805725 1.000000,601.000000 
M672.000000,519.500000 
	C672.000000,481.036102 672.000000,442.572205 672.000000,402.264648 
	C669.103394,404.331238 666.586365,405.186279 665.767090,406.868225 
	C661.344421,415.947968 657.282654,425.206268 653.207886,434.452087 
	C643.317993,456.892456 633.560425,479.391327 623.610962,501.805145 
	C617.298462,516.025635 610.660461,530.101501 604.306213,544.303772 
	C595.204590,564.646484 586.246765,585.053406 577.192871,605.417480 
	C571.524719,618.166443 565.741699,630.864441 560.101624,643.625732 
	C551.484314,663.122803 543.013672,682.684937 534.351440,702.161926 
	C528.027832,716.380615 521.391541,730.460388 515.083435,744.685791 
	C507.226898,762.403015 499.564514,780.206299 491.906219,797.770874 
	C486.723694,797.770874 481.958954,797.770874 477.213348,797.770874 
	C419.862549,666.686523 362.597717,535.798706 305.332916,404.910858 
	C304.888611,404.956818 304.444305,405.002747 304.000000,405.048706 
	C304.000000,406.896484 304.000000,408.744293 304.000000,410.592102 
	C304.000000,493.086639 303.918488,575.581299 304.050415,658.075684 
	C304.089233,682.347656 302.568756,706.705933 306.992920,730.812988 
	C308.704834,740.140991 311.842682,748.859741 318.440277,755.879578 
	C326.614929,764.577332 337.810089,765.559387 348.695496,766.934814 
	C355.336945,767.774109 362.059357,767.972534 368.730042,768.457642 
	C368.730042,776.274109 368.730042,784.012817 368.730042,791.729492 
	C312.723633,791.729492 256.987640,791.729492 201.273682,791.729492 
	C201.273682,783.716064 201.273682,775.976318 201.273682,768.739441 
	C209.887604,767.802551 218.187668,767.018677 226.455414,765.977966 
	C249.738922,763.047058 260.672211,751.289062 263.706543,729.065308 
	C266.148804,711.177795 266.855988,692.936462 266.854279,674.852173 
	C266.846252,588.605347 266.420929,502.357941 265.872742,416.112457 
	C265.813965,406.867859 264.518341,397.539856 262.874878,388.416565 
	C259.899139,371.897308 250.547455,360.454041 233.807144,356.476471 
	C225.153015,354.420166 216.214005,353.562775 207.158783,352.124817 
	C207.038651,350.438324 206.883499,348.260406 206.625702,344.641388 
	C204.168503,347.628052 202.539536,349.526337 200.999252,351.494019 
	C193.319824,361.304321 182.148315,365.728119 171.122955,369.794678 
	C159.096802,374.230408 151.030136,382.252960 144.936996,393.081818 
	C139.890076,402.051361 134.422989,410.786530 129.056564,419.573334 
	C126.209915,424.234375 122.415459,428.472565 120.390350,433.447632 
	C115.814095,444.690155 112.043839,456.262207 108.006889,467.721771 
	C106.894142,470.880463 105.311760,474.074005 105.117340,477.321777 
	C104.190186,492.809631 103.288834,508.318054 103.140022,523.826477 
	C103.048943,533.319031 104.719620,542.816650 104.918930,552.326294 
	C105.324471,571.675232 105.306610,591.002869 109.931671,610.006592 
	C112.475334,620.458069 113.617905,631.131836 116.714317,641.594055 
	C123.777306,665.458801 131.592529,688.910461 142.636536,711.276123 
	C154.593353,735.490295 169.717026,757.691040 185.259659,779.632141 
	C189.030167,784.954834 194.346634,789.230164 197.823883,794.703857 
	C207.943008,810.632874 222.824265,821.698608 237.359299,832.698364 
	C248.326202,840.997803 260.030823,848.302002 270.279541,857.646423 
	C277.499817,864.229614 284.954071,870.682983 292.967010,876.237793 
	C302.844208,883.084961 313.146851,889.432739 323.752533,895.082336 
	C334.207214,900.651550 345.077179,905.573425 356.115417,909.881226 
	C369.592926,915.141113 382.822937,921.993103 398.127014,920.080627 
	C399.067596,919.963135 400.144043,921.021423 401.172974,921.498840 
	C402.295380,922.019714 403.391418,922.714539 404.576660,922.963074 
	C410.072510,924.115479 413.383942,921.731934 414.242615,915.874329 
	C416.483856,917.252380 418.226898,918.136475 419.756897,919.300598 
	C424.056763,922.572449 429.513000,923.564880 433.252899,920.549255 
	C437.795990,916.885986 441.806152,918.254578 446.104767,919.108276 
	C450.961517,920.072815 455.694214,921.652222 460.505005,922.868835 
	C461.236237,923.053772 462.417267,923.031494 462.850281,922.583435 
	C467.535797,917.733887 472.683777,917.587646 479.271576,918.510559 
	C483.636353,919.122131 488.299469,918.818787 492.922211,919.829956 
	C499.931458,921.363098 507.229950,924.825195 513.672668,917.335205 
	C515.815979,914.843628 520.070740,917.429138 521.017639,921.058533 
	C521.468445,922.786194 522.105042,924.465393 522.368042,925.275208 
	C524.882263,923.392090 527.077759,920.457520 529.417175,920.337952 
	C532.051025,920.203369 534.814514,922.606018 537.967712,924.119080 
	C539.097900,921.329224 540.201782,918.604370 541.805054,914.646973 
	C545.627075,918.487488 549.151611,921.416077 551.907349,924.945129 
	C555.828674,929.966919 557.711243,930.479736 562.701599,926.871155 
	C564.204712,925.784241 566.085999,925.220276 567.827698,924.401001 
	C567.827698,923.144226 568.270569,921.612549 567.743958,920.571106 
	C566.211243,917.540161 566.524658,914.740601 569.400269,913.329102 
	C571.950928,912.077271 575.530212,910.880249 577.844727,911.769409 
	C580.098145,912.635132 581.863037,915.979187 582.833008,918.607544 
	C583.645081,920.807922 582.374207,923.772888 583.175232,925.982544 
	C583.997314,928.250244 586.194092,931.680786 587.824158,931.700378 
	C594.117798,931.776062 600.712341,931.648376 606.673096,929.858704 
	C623.607849,924.774170 640.204773,918.458679 658.385376,919.941284 
	C659.746277,920.052246 661.258301,919.524902 662.558411,918.965149 
	C669.723694,915.880005 677.133423,913.210388 683.920227,909.430237 
	C697.255737,902.002502 710.442932,894.260681 723.299988,886.036438 
	C733.902466,879.254395 743.959717,871.616821 754.219727,864.303894 
	C759.359314,860.640686 764.465332,856.926086 769.492188,853.110474 
	C778.016113,846.640259 787.254700,840.858887 794.747620,833.346436 
	C804.286072,823.783203 812.488464,812.869080 821.082764,802.386414 
	C835.100220,785.289062 847.417908,766.997681 857.226685,747.192566 
	C866.838013,727.786011 877.998657,709.108093 885.022583,688.446045 
	C888.668335,677.721497 893.686768,667.429199 896.844666,656.580505 
	C903.140259,634.952759 909.297546,613.218323 911.934204,590.753601 
	C913.630676,576.299255 915.272888,561.789246 915.796692,547.263000 
	C916.174072,536.797058 914.856995,526.246948 913.953369,515.763916 
	C912.818054,502.592041 911.728760,489.393829 909.860352,476.315460 
	C908.614807,467.597168 906.514771,458.925720 903.961670,450.486084 
	C899.505188,435.754303 894.184509,421.290314 891.924927,405.952332 
	C891.348816,402.041412 889.444641,398.663483 885.310913,397.027374 
	C881.465820,395.505463 877.546387,394.013062 873.998962,391.929810 
	C866.033813,387.252136 858.530884,381.426239 857.549683,371.677460 
	C856.867065,364.894714 857.607849,357.449036 859.808044,351.016144 
	C863.208252,341.074921 863.356995,332.645966 856.162659,324.263428 
	C851.692322,319.054779 847.859680,313.121948 844.667236,307.028778 
	C837.192322,292.761719 826.877625,280.708923 816.296387,268.808319 
	C813.562805,265.733917 810.572815,262.872070 808.004028,259.669250 
	C798.384827,247.675964 787.218201,237.421951 774.339233,229.020432 
	C769.491028,225.857742 764.727600,222.565216 759.888611,219.388123 
	C752.221558,214.354202 744.991211,208.329208 736.727661,204.607071 
	C724.671570,199.176697 712.918945,192.825226 698.788025,192.532715 
	C691.082458,192.373169 683.406799,190.193695 675.538757,191.934479 
	C672.534119,192.599243 668.983032,193.760483 666.386597,192.795914 
	C654.402100,188.343643 641.527588,184.922211 631.107056,177.943420 
	C615.333313,167.379501 601.300476,154.207489 586.646606,142.001175 
	C585.763733,141.265717 585.531616,139.232590 585.678284,137.877060 
	C586.072937,134.229614 584.649719,131.888565 581.195923,131.035187 
	C574.727539,129.436951 569.297424,131.892441 564.559631,136.022324 
	C559.834534,140.141129 555.596191,144.857559 550.653381,148.676346 
	C545.832947,152.400589 540.562927,154.318695 533.986572,151.716522 
	C525.542297,148.375244 521.283386,141.354111 516.967163,134.409805 
	C512.044128,126.489235 505.152985,123.421158 495.608368,125.678871 
	C492.460297,126.423523 489.183380,126.722321 485.945892,126.968506 
	C479.902496,127.428062 474.275879,129.272385 470.587646,134.077637 
	C464.756348,141.674911 459.251831,149.340591 452.015503,155.892746 
	C445.579681,161.720062 445.064453,162.666641 438.108154,157.603699 
	C435.262421,155.532486 432.648041,155.154053 431.047211,158.986923 
	C429.260162,163.265640 427.932953,167.753677 425.927429,171.920456 
	C421.114471,181.920166 415.980957,191.598938 404.070801,195.193375 
	C401.703674,195.907761 399.552734,198.588089 398.117096,200.873779 
	C395.308563,205.345169 392.520630,209.977386 390.739044,214.909622 
	C388.360229,221.495377 383.588715,227.261490 383.948090,234.847366 
	C384.210144,240.379379 382.073669,243.508713 376.698517,243.799133 
	C371.432373,244.083679 371.316010,247.450958 372.164917,250.391678 
	C374.188843,257.402924 377.019989,264.182770 379.589569,271.031891 
	C379.801422,271.596588 380.440796,272.071014 380.985382,272.429596 
	C385.055359,275.109375 389.151489,277.749390 393.734222,280.722900 
	C394.692383,278.354492 395.618683,276.793365 395.955109,275.114075 
	C398.043945,264.687256 399.938293,254.221542 402.025757,243.794464 
	C403.149261,238.182678 406.828552,235.618256 411.891083,236.611435 
	C411.926331,236.936188 412.059174,237.286133 411.982788,237.582062 
	C408.850006,249.717117 405.811646,261.878845 402.447235,273.949677 
	C401.825012,276.182068 400.344421,278.829346 398.464142,279.950806 
	C386.268707,287.224701 371.473969,283.247833 365.104401,270.469543 
	C360.899963,262.034790 355.738831,255.108658 347.674561,249.959579 
	C341.205170,245.828812 330.621002,244.064072 324.217224,248.072617 
	C320.316620,250.514252 316.601501,250.617798 312.684906,248.975784 
	C304.775238,245.659714 297.151611,247.398483 289.619202,250.128189 
	C284.780670,251.881653 280.307770,254.025345 274.797760,254.176819 
	C257.103058,254.663254 239.623764,252.732422 222.069336,251.151566 
	C212.611404,250.299835 209.090759,255.581070 211.331406,264.809998 
	C215.315857,281.221344 216.199524,297.819885 214.041016,314.592255 
	C213.442703,319.241272 213.257858,323.943542 212.853012,329.000000 
	C233.902847,329.000000 254.367142,329.000000 274.831451,329.000000 
	C298.829865,329.000000 322.828278,329.001099 346.826691,328.998169 
	C349.108246,328.997894 351.148590,328.730347 352.382019,331.683105 
	C358.436554,346.177185 364.810150,360.537476 370.963501,374.990845 
	C378.180084,391.941589 385.229950,408.963287 392.455566,425.910126 
	C399.559875,442.572571 406.862640,459.150513 413.951660,475.819397 
	C421.160858,492.770874 428.130127,509.824554 435.363373,526.765625 
	C441.785004,541.805969 448.499786,556.721008 454.948090,571.750122 
	C462.338928,588.976013 469.606476,606.255066 476.875580,623.532837 
	C482.962738,638.001282 488.932739,652.519104 495.041504,666.978333 
	C497.487549,672.768005 500.166321,678.459290 502.816803,684.368469 
	C503.498413,683.736206 503.826294,683.567627 503.941742,683.305603 
	C512.537659,663.791687 521.119873,644.271851 529.696472,624.749451 
	C540.657715,599.798889 551.595581,574.838074 562.576477,549.896118 
	C573.621338,524.808594 584.717529,499.743652 595.770996,474.659882 
	C605.726624,452.067749 615.663330,429.467285 625.592651,406.863617 
	C636.294800,382.500854 647.034424,358.154236 657.606750,333.735199 
	C659.087463,330.315155 660.774780,328.867462 664.800903,328.885406 
	C706.630676,329.071564 748.461609,329.000000 790.292175,329.000000 
	C791.743042,329.000000 793.193848,329.000000 794.781860,329.000000 
	C794.781860,337.171661 794.781860,344.911469 794.781860,352.311310 
	C787.417236,353.229523 780.264893,353.833374 773.220581,355.058716 
	C757.913391,357.721283 747.150330,365.969971 741.983643,381.051025 
	C737.039429,395.482788 736.291992,410.589172 736.211182,425.454071 
	C735.768311,506.946289 735.961670,588.442200 736.044373,669.936707 
	C736.055786,681.188782 736.394409,692.456848 737.080627,703.687012 
	C737.697449,713.782410 738.468018,723.926086 740.154785,733.881775 
	C741.753235,743.315979 745.790039,751.801270 753.563660,758.149841 
	C761.673950,764.773254 771.436890,765.855286 781.198425,766.952148 
	C787.690491,767.681641 794.233948,767.953796 800.727295,768.428711 
	C800.727295,776.279663 800.727295,784.019226 800.727295,791.727417 
	C735.718628,791.727417 670.983032,791.727417 606.275757,791.727417 
	C606.275757,783.711975 606.275757,775.971680 606.275757,768.975769 
	C616.995422,767.619202 627.436218,766.792847 637.674072,764.880249 
	C651.255371,762.343140 661.163940,754.864746 666.041626,741.379456 
	C671.071716,727.472595 671.664978,712.853760 671.787659,698.486389 
	C672.294312,639.161316 672.000000,579.829407 672.000000,519.500000 
z"/>
<path fill="#000000" opacity="1.000000" stroke="none" 
	d="
M1.000000,601.468628 
	C10.530671,604.805725 16.328825,604.059814 19.844545,598.485962 
	C21.640224,595.639099 23.241842,592.670044 25.031267,589.819031 
	C26.998825,586.684143 29.042328,583.594910 31.127319,580.536560 
	C32.586128,578.396790 34.379425,578.006653 36.802429,579.275696 
	C42.622124,582.323608 48.511791,585.245178 54.445595,588.065552 
	C58.798531,590.134521 61.046894,593.872864 61.906067,598.183228 
	C65.748589,617.460693 69.343834,636.787781 72.960258,656.109680 
	C74.354866,663.560791 75.110504,670.985229 70.039307,677.580933 
	C69.160286,678.724243 68.432640,680.099121 67.308441,680.919250 
	C61.930470,684.842468 61.996681,686.726074 66.131409,691.795166 
	C70.337540,696.951843 72.588089,703.434082 70.782387,709.881592 
	C69.454102,714.624390 66.459618,719.233826 63.150894,722.965759 
	C61.109474,725.268372 57.084202,725.812134 53.278980,727.430786 
	C51.261261,729.931458 48.604397,733.368530 45.796135,736.677185 
	C37.861141,746.026062 29.741777,755.223083 22.019979,764.743469 
	C20.824360,766.217590 20.709360,769.222595 21.180056,771.270142 
	C22.552044,777.238159 22.472420,782.262695 16.151154,785.534119 
	C14.762777,786.252625 13.722809,788.223877 13.194815,789.838135 
	C12.788633,791.080017 13.115700,793.744751 13.673771,793.911438 
	C15.925293,794.583801 18.450003,794.936340 20.760746,794.608887 
	C22.335810,794.385681 23.723232,792.838501 25.357485,791.777527 
	C25.960711,792.557495 26.922485,793.244995 26.846670,793.787537 
	C25.902430,800.545959 30.642509,804.976685 33.691204,809.941589 
	C35.195591,812.391418 35.044220,813.487427 33.231327,815.330627 
	C29.890366,818.727478 26.828268,822.397156 23.545422,825.853821 
	C22.951548,826.479248 21.793444,827.050415 21.004274,826.930847 
	C15.785854,826.140137 14.571444,830.626282 12.306243,833.558105 
	C11.923254,834.053772 12.700161,836.207764 13.499641,836.714355 
	C16.071493,838.344238 21.648335,835.986023 24.102114,834.056152 
	C28.847267,830.324158 34.130299,827.263977 39.290894,824.088623 
	C39.888367,823.720947 41.368996,824.085876 42.022652,824.621094 
	C48.336411,829.790039 54.980202,834.655029 60.680523,840.443115 
	C65.412918,845.248474 68.715553,851.432617 73.206139,856.516052 
	C76.074059,859.762634 80.124481,861.931213 83.336189,864.915222 
	C88.125084,869.364624 87.967133,870.718933 83.743050,875.830933 
	C82.240768,877.649170 80.582466,879.746399 80.141693,881.945984 
	C79.312950,886.081543 82.428833,888.153748 86.235504,886.175659 
	C88.072495,885.221069 89.659019,883.701660 91.191353,882.259949 
	C94.895248,878.774719 96.033699,878.939453 97.430733,882.454285 
	C92.917953,886.321533 88.666725,889.964600 84.415497,893.607727 
	C84.721687,894.077087 85.027878,894.546387 85.334076,895.015747 
	C89.738251,894.170837 93.908310,889.847229 98.657249,893.734741 
	C98.726822,893.791687 99.149620,893.304565 99.451385,893.207153 
	C105.896919,891.126099 112.348724,889.064453 118.789078,887.002380 
	C117.831139,884.482544 116.755905,881.654114 115.568748,878.531311 
	C131.331329,874.422241 146.979736,873.791626 162.694885,874.045532 
	C167.307251,874.120056 169.403732,877.192810 168.238678,882.577087 
	C171.988419,880.857178 175.427017,879.615540 178.528671,877.798645 
	C191.355347,870.285034 195.748260,874.428284 205.474350,883.938904 
	C212.129578,890.446594 218.955948,896.779053 225.647446,903.250183 
	C230.104431,907.560364 234.243057,912.223755 238.904922,916.292847 
	C247.762680,924.024231 256.654816,931.755737 265.996033,938.879578 
	C272.078949,943.518555 278.722687,947.611877 285.595001,950.966797 
	C291.251617,953.728210 297.493835,955.990234 303.691956,956.777710 
	C312.966309,957.955994 319.792816,961.684082 323.662842,970.260315 
	C324.376099,971.841064 324.397522,973.724243 325.038849,975.349243 
	C326.073029,977.969604 326.730042,981.195129 328.660187,982.914795 
	C333.300232,987.048645 335.737762,992.073730 337.072845,998.389587 
	C334.516022,999.532654 331.846558,1000.726135 329.177094,1001.919617 
	C329.198883,1002.339172 329.220703,1002.758789 329.242523,1003.178345 
	C333.056488,1003.789795 336.916992,1004.202026 340.669006,1005.078674 
	C343.440247,1005.726135 345.977386,1006.789062 344.687561,1010.802490 
	C341.540558,1020.594543 340.328339,1025.397217 355.631744,1025.003296 
	C356.609406,1024.978149 357.588257,1025.000000 358.969269,1025.000000 
	C358.969269,1026.541748 359.440460,1028.078979 358.893555,1029.031982 
	C355.049744,1035.730591 356.225403,1043.037476 355.974976,1050.189087 
	C355.830780,1054.308350 357.458344,1058.086304 361.029694,1059.163818 
	C364.295166,1060.149048 369.061584,1060.162109 371.708771,1058.406128 
	C378.329163,1054.014160 384.382904,1048.650024 390.174255,1043.159424 
	C396.011169,1037.625366 392.787537,1028.369019 385.112885,1025.835327 
	C379.735565,1024.060059 374.805542,1020.929993 368.458801,1017.805969 
	C371.397522,1015.406677 373.473969,1014.287109 374.685730,1012.560669 
	C375.904968,1010.823792 377.041260,1008.408936 376.851440,1006.421204 
	C376.323242,1000.890381 377.577332,997.152466 383.847870,997.067261 
	C388.969513,996.997559 388.703278,994.366821 386.989105,990.950195 
	C385.188202,987.360657 383.313629,983.808044 380.707886,978.760681 
	C383.907227,980.328186 385.890350,981.670471 388.078125,982.291016 
	C392.058105,983.419800 396.147858,984.762268 400.213531,984.837158 
	C405.364166,984.932068 408.129303,986.831787 410.087982,991.616699 
	C413.173920,999.155457 419.492432,1001.867920 426.761322,1001.052124 
	C428.696655,1004.383667 430.414642,1007.341064 432.426941,1010.805054 
	C435.354889,1008.351562 437.482635,1005.995728 440.106384,1004.524536 
	C442.964478,1002.921875 446.203766,1001.763611 449.418945,1001.088806 
	C454.177948,1000.089966 459.091949,998.997864 463.885864,999.204041 
	C470.121033,999.472046 476.381927,1000.628784 482.489380,1002.025391 
	C491.384277,1004.059509 500.190155,1006.517334 508.959839,1009.051086 
	C514.092651,1010.534058 519.742249,1011.274780 521.188904,1018.261719 
	C521.899902,1021.695740 527.759094,1023.161011 531.878052,1021.624451 
	C532.774048,1021.290222 533.531921,1020.591003 534.424744,1020.242310 
	C544.532654,1016.293701 545.695740,1016.861694 549.001038,1027.250122 
	C549.864685,1029.964478 558.991516,1034.516235 562.520142,1033.992432 
	C565.992371,1033.476929 569.146545,1029.468628 568.914856,1024.922852 
	C568.682434,1020.365417 570.471375,1015.604248 566.362366,1011.341492 
	C564.014221,1008.905396 566.921631,1004.722900 570.616882,1005.074768 
	C577.476318,1005.728149 583.256104,1003.871399 588.876160,999.830566 
	C595.291016,995.218262 602.636292,999.916138 605.911255,1004.909363 
	C608.613281,1009.028992 610.487366,1013.682739 613.040833,1017.911133 
	C615.927795,1022.692017 620.390747,1024.822754 623.571594,1022.686035 
	C627.483948,1020.057983 627.664734,1016.205688 626.103394,1011.807007 
	C624.352112,1006.873474 622.043030,1001.457153 627.435547,997.212280 
	C629.354736,995.701538 631.975098,995.102234 634.225037,993.985413 
	C636.590576,992.811340 639.621155,992.080261 641.103271,990.176453 
	C647.885010,981.464966 657.750183,976.806091 666.739807,971.521179 
	C674.828552,966.765808 684.893921,965.504944 693.757874,961.893921 
	C700.818542,959.017578 707.264404,954.668091 714.201904,951.443237 
	C720.400574,948.561707 726.824585,946.717773 733.921631,948.870789 
	C739.222351,950.478882 742.309082,947.830872 743.098877,942.453430 
	C743.328003,940.893188 744.394104,939.009216 745.667542,938.122192 
	C753.464722,932.691589 761.519836,927.631287 769.314941,922.197998 
	C775.816284,917.666565 781.901672,912.523804 788.510498,908.166199 
	C792.883484,905.282898 797.917236,903.420227 802.534607,900.881348 
	C804.925964,899.566467 807.310425,898.036194 809.249268,896.143555 
	C813.267456,892.221191 817.036865,891.238647 821.861267,895.040649 
	C823.196533,896.092957 827.234070,896.079956 827.931152,895.084656 
	C829.366882,893.034546 830.444031,889.666016 829.754028,887.431152 
	C828.558594,883.559570 829.926697,881.341614 831.808533,878.201721 
	C837.337646,868.976257 846.757141,863.820801 853.645813,856.081787 
	C856.440918,852.941833 859.527405,850.062195 862.459045,847.042542 
	C873.467712,835.702881 884.190308,824.067200 895.560059,813.102417 
	C904.199890,804.770142 909.758362,794.655151 914.979309,784.168884 
	C922.189697,769.687073 929.707825,755.351807 936.612122,740.726135 
	C943.039917,727.109863 949.245483,713.357178 954.775940,699.359131 
	C958.879700,688.972351 961.722778,678.089050 965.180847,667.444275 
	C965.994751,664.938904 967.024170,662.503662 967.954407,660.036133 
	C970.284180,661.015747 972.606140,662.014648 974.946289,662.968750 
	C976.847534,663.743958 978.950012,664.185120 980.645813,665.270386 
	C983.946960,667.382935 986.264099,665.220764 988.466980,663.524536 
	C988.758118,663.300293 987.281616,659.872375 985.961914,658.633179 
	C981.922180,654.840027 977.418701,651.537903 973.417603,647.708252 
	C972.360046,646.695984 971.819153,644.331726 972.141907,642.823853 
	C973.958496,634.334839 976.309814,625.959229 978.083008,617.462341 
	C979.372437,611.283569 979.867188,604.942566 981.040649,598.735168 
	C983.043640,588.139587 985.030090,577.524353 987.644104,567.072510 
	C988.290710,564.487061 991.204712,562.383179 993.288208,560.266296 
	C995.472412,558.047180 997.910889,556.078430 1000.619141,554.000122 
	C1001.000000,744.627014 1001.000000,935.254089 1001.000000,1125.940552 
	C667.775635,1125.940552 334.551270,1125.940552 1.000000,1125.940552 
	C1.000000,951.312561 1.000000,776.624939 1.000000,601.468628 
z"/>
<path fill="#000000" opacity="1.000000" stroke="none" 
	d="
M1001.000000,528.531372 
	C1000.494690,528.964478 999.546326,528.925537 999.546509,528.893860 
	C999.604370,521.315308 992.723877,518.158142 989.234253,512.874878 
	C985.781311,507.647125 980.772827,503.385925 979.921265,496.665100 
	C979.679626,494.757996 979.004272,492.859436 979.051086,490.969910 
	C979.300110,480.936279 977.241211,471.272400 975.454102,461.457062 
	C973.613403,451.348328 973.776306,440.878937 972.966370,430.574921 
	C972.803711,428.505341 972.919373,425.766876 971.698120,424.532928 
	C963.922302,416.676178 963.491394,405.909363 960.036194,396.371429 
	C955.571289,384.046692 951.519348,371.571198 946.975830,359.276581 
	C942.881348,348.196930 938.981934,336.976257 933.872986,326.358368 
	C927.765259,313.664703 920.339844,301.611481 913.713196,289.159454 
	C906.720947,276.020233 899.671204,262.892639 893.299988,249.450226 
	C890.298096,243.116638 887.841370,236.720245 882.457642,231.872009 
	C878.253601,228.086105 874.642639,223.623550 870.327087,219.984802 
	C866.554016,216.803375 862.142883,214.384430 858.060974,211.560287 
	C856.467041,210.457520 855.007751,209.161026 853.477600,207.964951 
	C843.245850,199.966873 833.010559,191.973312 822.780701,183.972855 
	C822.133667,183.466873 821.383179,183.016296 820.914612,182.370346 
	C811.378296,169.222672 797.838806,160.544571 785.205322,150.982056 
	C776.402649,144.319199 766.749878,138.723450 757.201111,133.121002 
	C750.192200,129.008789 742.767334,125.595886 735.472412,121.983200 
	C724.061951,116.332352 714.706909,106.959328 702.074158,103.539375 
	C695.123169,101.657600 687.497803,101.042305 681.356934,97.692177 
	C673.025085,93.146820 663.367859,93.935905 655.411865,89.776825 
	C646.786072,85.267586 636.876038,86.631142 628.567383,82.761833 
	C617.533752,77.623520 605.051514,80.453880 594.263977,75.150803 
	C593.715820,74.881317 592.957458,75.025749 592.296021,75.002518 
	C582.712830,74.665817 573.074036,74.857101 563.561951,73.850754 
	C554.293152,72.870155 545.203186,70.274780 535.943970,69.108032 
	C526.685852,67.941414 517.323425,67.324532 507.991638,67.103287 
	C499.880066,66.910965 491.535034,65.722328 483.844147,69.915878 
	C482.942596,70.407455 481.547485,69.999023 480.381195,69.999199 
	C470.880829,70.000626 461.368286,70.286324 451.885010,69.883789 
	C446.857788,69.670387 441.760376,72.737984 436.609833,69.259979 
	C435.624725,68.594765 432.005005,70.640900 430.436279,72.250420 
	C425.474487,77.341217 419.148895,78.691208 412.611267,80.080338 
	C406.838837,81.306892 401.227600,83.277550 395.519867,84.826263 
	C386.077423,87.388329 376.672394,90.124367 367.146362,92.333244 
	C354.142639,95.348534 341.606232,99.590538 329.290100,104.717278 
	C326.495544,105.880539 322.583771,105.559792 319.537048,104.691368 
	C310.522461,102.121880 301.494690,100.291382 292.076630,100.995216 
	C291.579529,101.032364 291.032562,100.868530 290.584229,101.020615 
	C285.496155,102.746620 280.983093,104.119942 277.638916,97.501732 
	C276.213562,94.680908 270.105103,96.178444 268.409302,99.081345 
	C266.675751,102.048851 268.262909,105.167015 272.431213,107.182190 
	C271.732330,111.804466 265.316895,115.114716 269.660309,121.154022 
	C259.020935,121.881935 262.533936,131.876251 259.108490,137.452606 
	C257.384827,140.258530 256.568542,143.679047 255.647766,146.908829 
	C253.846710,153.226288 247.692459,154.556747 243.352646,157.954071 
	C239.533112,160.944107 235.309845,163.489441 231.817215,166.811813 
	C223.584320,174.643372 215.745087,182.886810 207.626633,190.841187 
	C198.865189,199.425568 189.708252,207.621170 181.204636,216.449493 
	C173.357544,224.596191 166.111328,233.325012 158.673737,241.861267 
	C155.438019,245.574905 152.282822,249.368851 149.272369,253.266373 
	C143.805161,260.344513 135.859695,261.634277 127.796684,263.062500 
	C119.553215,264.522736 111.242897,266.414795 104.677116,271.955719 
	C101.375885,274.741669 98.642715,278.476593 96.456284,282.248199 
	C92.341698,289.345947 89.557686,297.058899 91.086105,305.434723 
	C92.175674,311.405640 93.978821,317.254974 95.623848,323.113525 
	C97.268845,328.971893 97.429787,334.440704 93.177704,339.473724 
	C92.019417,340.844727 91.377258,342.906860 91.120377,344.739014 
	C90.142990,351.709900 87.122185,357.725891 83.792000,363.863831 
	C76.485077,377.331360 70.855888,391.791565 62.738266,404.713593 
	C54.652756,417.584503 51.019165,432.037628 45.091114,445.638000 
	C43.232143,449.902954 44.132359,455.285095 42.905281,459.927368 
	C39.496540,472.823242 35.630280,485.327423 26.287001,495.843597 
	C22.399643,500.218933 21.336031,507.558502 20.133356,513.771851 
	C17.352480,528.138550 16.357302,542.630066 20.987570,556.900940 
	C23.538748,564.763855 20.612734,571.114014 15.622174,576.832031 
	C11.116925,581.994019 6.375455,586.949890 1.369081,591.998291 
	C1.000000,395.040558 1.000000,198.081085 1.000000,1.060818 
	C334.224182,1.060818 667.448364,1.060818 1001.000000,1.060818 
	C1001.000000,176.687424 1001.000000,352.375061 1001.000000,528.531372 
z"/>
<path fill="#000000" opacity="1.000000" stroke="none" 
	d="
M1001.000000,543.541931 
	C1000.000427,542.650452 998.118347,541.253113 998.188354,539.961548 
	C998.326477,537.412415 999.545837,534.921814 1000.659058,532.703491 
	C1001.000000,536.361267 1001.000000,539.722595 1001.000000,543.541931 
z"/>
<path fill="#000000" opacity="1.000000" stroke="none" 
	d="
M672.000000,520.000000 
	C672.000000,579.829407 672.294312,639.161316 671.787659,698.486389 
	C671.664978,712.853760 671.071716,727.472595 666.041626,741.379456 
	C661.163940,754.864746 651.255371,762.343140 637.674072,764.880249 
	C627.436218,766.792847 616.995422,767.619202 606.275757,768.975769 
	C606.275757,775.971680 606.275757,783.711975 606.275757,791.727417 
	C670.983032,791.727417 735.718628,791.727417 800.727295,791.727417 
	C800.727295,784.019226 800.727295,776.279663 800.727295,768.428711 
	C794.233948,767.953796 787.690491,767.681641 781.198425,766.952148 
	C771.436890,765.855286 761.673950,764.773254 753.563660,758.149841 
	C745.790039,751.801270 741.753235,743.315979 740.154785,733.881775 
	C738.468018,723.926086 737.697449,713.782410 737.080627,703.687012 
	C736.394409,692.456848 736.055786,681.188782 736.044373,669.936707 
	C735.961670,588.442200 735.768311,506.946289 736.211182,425.454071 
	C736.291992,410.589172 737.039429,395.482788 741.983643,381.051025 
	C747.150330,365.969971 757.913391,357.721283 773.220581,355.058716 
	C780.264893,353.833374 787.417236,353.229523 794.781860,352.311310 
	C794.781860,344.911469 794.781860,337.171661 794.781860,329.000000 
	C793.193848,329.000000 791.743042,329.000000 790.292175,329.000000 
	C748.461609,329.000000 706.630676,329.071564 664.800903,328.885406 
	C660.774780,328.867462 659.087463,330.315155 657.606750,333.735199 
	C647.034424,358.154236 636.294800,382.500854 625.592651,406.863617 
	C615.663330,429.467285 605.726624,452.067749 595.770996,474.659882 
	C584.717529,499.743652 573.621338,524.808594 562.576477,549.896118 
	C551.595581,574.838074 540.657715,599.798889 529.696472,624.749451 
	C521.119873,644.271851 512.537659,663.791687 503.941742,683.305603 
	C503.826294,683.567627 503.498413,683.736206 502.816803,684.368469 
	C500.166321,678.459290 497.487549,672.768005 495.041504,666.978333 
	C488.932739,652.519104 482.962738,638.001282 476.875580,623.532837 
	C469.606476,606.255066 462.338928,588.976013 454.948090,571.750122 
	C448.499786,556.721008 441.785004,541.805969 435.363373,526.765625 
	C428.130127,509.824554 421.160858,492.770874 413.951660,475.819397 
	C406.862640,459.150513 399.559875,442.572571 392.455566,425.910126 
	C385.229950,408.963287 378.180084,391.941589 370.963501,374.990845 
	C364.810150,360.537476 358.436554,346.177185 352.382019,331.683105 
	C351.148590,328.730347 349.108246,328.997894 346.826691,328.998169 
	C322.828278,329.001099 298.829865,329.000000 274.831451,329.000000 
	C254.367142,329.000000 233.902847,329.000000 212.853012,329.000000 
	C213.257858,323.943542 213.442703,319.241272 214.041016,314.592255 
	C216.199524,297.819885 215.315857,281.221344 211.331406,264.809998 
	C209.090759,255.581070 212.611404,250.299835 222.069336,251.151566 
	C239.623764,252.732422 257.103058,254.663254 274.797760,254.176819 
	C280.307770,254.025345 284.780670,251.881653 289.619202,250.128189 
	C297.151611,247.398483 304.775238,245.659714 312.684906,248.975784 
	C316.601501,250.617798 320.316620,250.514252 324.217224,248.072617 
	C330.621002,244.064072 341.205170,245.828812 347.674561,249.959579 
	C355.738831,255.108658 360.899963,262.034790 365.104401,270.469543 
	C371.473969,283.247833 386.268707,287.224701 398.464142,279.950806 
	C400.344421,278.829346 401.825012,276.182068 402.447235,273.949677 
	C405.811646,261.878845 408.850006,249.717117 411.982788,237.582062 
	C412.059174,237.286133 411.926331,236.936188 411.888855,236.611679 
	C406.828552,235.618256 403.149261,238.182678 402.025757,243.794464 
	C399.938293,254.221542 398.043945,264.687256 395.955109,275.114075 
	C395.618683,276.793365 394.692383,278.354492 393.734222,280.722900 
	C389.151489,277.749390 385.055359,275.109375 380.985382,272.429596 
	C380.440796,272.071014 379.801422,271.596588 379.589569,271.031891 
	C377.019989,264.182770 374.188843,257.402924 372.164917,250.391678 
	C371.316010,247.450958 371.432373,244.083679 376.698517,243.799133 
	C382.073669,243.508713 384.210144,240.379379 383.948090,234.847366 
	C383.588715,227.261490 388.360229,221.495377 390.739044,214.909622 
	C392.520630,209.977386 395.308563,205.345169 398.117096,200.873779 
	C399.552734,198.588089 401.703674,195.907761 404.070801,195.193375 
	C415.980957,191.598938 421.114471,181.920166 425.927429,171.920456 
	C427.932953,167.753677 429.260162,163.265640 431.047211,158.986923 
	C432.648041,155.154053 435.262421,155.532486 438.108154,157.603699 
	C445.064453,162.666641 445.579681,161.720062 452.015503,155.892746 
	C459.251831,149.340591 464.756348,141.674911 470.587646,134.077637 
	C474.275879,129.272385 479.902496,127.428062 485.945892,126.968506 
	C489.183380,126.722321 492.460297,126.423523 495.608368,125.678871 
	C505.152985,123.421158 512.044128,126.489235 516.967163,134.409805 
	C521.283386,141.354111 525.542297,148.375244 533.986572,151.716522 
	C540.562927,154.318695 545.832947,152.400589 550.653381,148.676346 
	C555.596191,144.857559 559.834534,140.141129 564.559631,136.022324 
	C569.297424,131.892441 574.727539,129.436951 581.195923,131.035187 
	C584.649719,131.888565 586.072937,134.229614 585.678284,137.877060 
	C585.531616,139.232590 585.763733,141.265717 586.646606,142.001175 
	C601.300476,154.207489 615.333313,167.379501 631.107056,177.943420 
	C641.527588,184.922211 654.402100,188.343643 666.386597,192.795914 
	C668.983032,193.760483 672.534119,192.599243 675.538757,191.934479 
	C683.406799,190.193695 691.082458,192.373169 698.788025,192.532715 
	C712.918945,192.825226 724.671570,199.176697 736.727661,204.607071 
	C744.991211,208.329208 752.221558,214.354202 759.888611,219.388123 
	C764.727600,222.565216 769.491028,225.857742 774.339233,229.020432 
	C787.218201,237.421951 798.384827,247.675964 808.004028,259.669250 
	C810.572815,262.872070 813.562805,265.733917 816.296387,268.808319 
	C826.877625,280.708923 837.192322,292.761719 844.667236,307.028778 
	C847.859680,313.121948 851.692322,319.054779 856.162659,324.263428 
	C863.356995,332.645966 863.208252,341.074921 859.808044,351.016144 
	C857.607849,357.449036 856.867065,364.894714 857.549683,371.677460 
	C858.530884,381.426239 866.033813,387.252136 873.998962,391.929810 
	C877.546387,394.013062 881.465820,395.505463 885.310913,397.027374 
	C889.444641,398.663483 891.348816,402.041412 891.924927,405.952332 
	C894.184509,421.290314 899.505188,435.754303 903.961670,450.486084 
	C906.514771,458.925720 908.614807,467.597168 909.860352,476.315460 
	C911.728760,489.393829 912.818054,502.592041 913.953369,515.763916 
	C914.856995,526.246948 916.174072,536.797058 915.796692,547.263000 
	C915.272888,561.789246 913.630676,576.299255 911.934204,590.753601 
	C909.297546,613.218323 903.140259,634.952759 896.844666,656.580505 
	C893.686768,667.429199 888.668335,677.721497 885.022583,688.446045 
	C877.998657,709.108093 866.838013,727.786011 857.226685,747.192566 
	C847.417908,766.997681 835.100220,785.289062 821.082764,802.386414 
	C812.488464,812.869080 804.286072,823.783203 794.747620,833.346436 
	C787.254700,840.858887 778.016113,846.640259 769.492188,853.110474 
	C764.465332,856.926086 759.359314,860.640686 754.219727,864.303894 
	C743.959717,871.616821 733.902466,879.254395 723.299988,886.036438 
	C710.442932,894.260681 697.255737,902.002502 683.920227,909.430237 
	C677.133423,913.210388 669.723694,915.880005 662.558411,918.965149 
	C661.258301,919.524902 659.746277,920.052246 658.385376,919.941284 
	C640.204773,918.458679 623.607849,924.774170 606.673096,929.858704 
	C600.712341,931.648376 594.117798,931.776062 587.824158,931.700378 
	C586.194092,931.680786 583.997314,928.250244 583.175232,925.982544 
	C582.374207,923.772888 583.645081,920.807922 582.833008,918.607544 
	C581.863037,915.979187 580.098145,912.635132 577.844727,911.769409 
	C575.530212,910.880249 571.950928,912.077271 569.400269,913.329102 
	C566.524658,914.740601 566.211243,917.540161 567.743958,920.571106 
	C568.270569,921.612549 567.827698,923.144226 567.827698,924.401001 
	C566.085999,925.220276 564.204712,925.784241 562.701599,926.871155 
	C557.711243,930.479736 555.828674,929.966919 551.907349,924.945129 
	C549.151611,921.416077 545.627075,918.487488 541.805054,914.646973 
	C540.201782,918.604370 539.097900,921.329224 537.967712,924.119080 
	C534.814514,922.606018 532.051025,920.203369 529.417175,920.337952 
	C527.077759,920.457520 524.882263,923.392090 522.368042,925.275208 
	C522.105042,924.465393 521.468445,922.786194 521.017639,921.058533 
	C520.070740,917.429138 515.815979,914.843628 513.672668,917.335205 
	C507.229950,924.825195 499.931458,921.363098 492.922211,919.829956 
	C488.299469,918.818787 483.636353,919.122131 479.271576,918.510559 
	C472.683777,917.587646 467.535797,917.733887 462.850281,922.583435 
	C462.417267,923.031494 461.236237,923.053772 460.505005,922.868835 
	C455.694214,921.652222 450.961517,920.072815 446.104767,919.108276 
	C441.806152,918.254578 437.795990,916.885986 433.252899,920.549255 
	C429.513000,923.564880 424.056763,922.572449 419.756897,919.300598 
	C418.226898,918.136475 416.483856,917.252380 414.242615,915.874329 
	C413.383942,921.731934 410.072510,924.115479 404.576660,922.963074 
	C403.391418,922.714539 402.295380,922.019714 401.172974,921.498840 
	C400.144043,921.021423 399.067596,919.963135 398.127014,920.080627 
	C382.822937,921.993103 369.592926,915.141113 356.115417,909.881226 
	C345.077179,905.573425 334.207214,900.651550 323.752533,895.082336 
	C313.146851,889.432739 302.844208,883.084961 292.967010,876.237793 
	C284.954071,870.682983 277.499817,864.229614 270.279541,857.646423 
	C260.030823,848.302002 248.326202,840.997803 237.359299,832.698364 
	C222.824265,821.698608 207.943008,810.632874 197.823883,794.703857 
	C194.346634,789.230164 189.030167,784.954834 185.259659,779.632141 
	C169.717026,757.691040 154.593353,735.490295 142.636536,711.276123 
	C131.592529,688.910461 123.777306,665.458801 116.714317,641.594055 
	C113.617905,631.131836 112.475334,620.458069 109.931671,610.006592 
	C105.306610,591.002869 105.324471,571.675232 104.918930,552.326294 
	C104.719620,542.816650 103.048943,533.319031 103.140022,523.826477 
	C103.288834,508.318054 104.190186,492.809631 105.117340,477.321777 
	C105.311760,474.074005 106.894142,470.880463 108.006889,467.721771 
	C112.043839,456.262207 115.814095,444.690155 120.390350,433.447632 
	C122.415459,428.472565 126.209915,424.234375 129.056564,419.573334 
	C134.422989,410.786530 139.890076,402.051361 144.936996,393.081818 
	C151.030136,382.252960 159.096802,374.230408 171.122955,369.794678 
	C182.148315,365.728119 193.319824,361.304321 200.999252,351.494019 
	C202.539536,349.526337 204.168503,347.628052 206.625702,344.641388 
	C206.883499,348.260406 207.038651,350.438324 207.158783,352.124817 
	C216.214005,353.562775 225.153015,354.420166 233.807144,356.476471 
	C250.547455,360.454041 259.899139,371.897308 262.874878,388.416565 
	C264.518341,397.539856 265.813965,406.867859 265.872742,416.112457 
	C266.420929,502.357941 266.846252,588.605347 266.854279,674.852173 
	C266.855988,692.936462 266.148804,711.177795 263.706543,729.065308 
	C260.672211,751.289062 249.738922,763.047058 226.455414,765.977966 
	C218.187668,767.018677 209.887604,767.802551 201.273682,768.739441 
	C201.273682,775.976318 201.273682,783.716064 201.273682,791.729492 
	C256.987640,791.729492 312.723633,791.729492 368.730042,791.729492 
	C368.730042,784.012817 368.730042,776.274109 368.730042,768.457642 
	C362.059357,767.972534 355.336945,767.774109 348.695496,766.934814 
	C337.810089,765.559387 326.614929,764.577332 318.440277,755.879578 
	C311.842682,748.859741 308.704834,740.140991 306.992920,730.812988 
	C302.568756,706.705933 304.089233,682.347656 304.050415,658.075684 
	C303.918488,575.581299 304.000000,493.086639 304.000000,410.592102 
	C304.000000,408.744293 304.000000,406.896484 304.000000,405.048706 
	C304.444305,405.002747 304.888611,404.956818 305.332916,404.910858 
	C362.597717,535.798706 419.862549,666.686523 477.213348,797.770874 
	C481.958954,797.770874 486.723694,797.770874 491.906219,797.770874 
	C499.564514,780.206299 507.226898,762.403015 515.083435,744.685791 
	C521.391541,730.460388 528.027832,716.380615 534.351440,702.161926 
	C543.013672,682.684937 551.484314,663.122803 560.101624,643.625732 
	C565.741699,630.864441 571.524719,618.166443 577.192871,605.417480 
	C586.246765,585.053406 595.204590,564.646484 604.306213,544.303772 
	C610.660461,530.101501 617.298462,516.025635 623.610962,501.805145 
	C633.560425,479.391327 643.317993,456.892456 653.207886,434.452087 
	C657.282654,425.206268 661.344421,415.947968 665.767090,406.868225 
	C666.586365,405.186279 669.103394,404.331238 672.000000,402.264648 
	C672.000000,442.572205 672.000000,481.036102 672.000000,520.000000 
z"/>
</svg>